<!-- Generated by IcoMoon.io -->
<svg version="1.1" xmlns="http://www.w3.org/2000/svg" width="70" height="70" viewBox="0 0 70 70">
<title>figma</title>
<path fill="#f24e1e" d="M35 35c0-6.443 5.223-11.667 11.667-11.667s11.667 5.223 11.667 11.667v0c0 6.443-5.223 11.667-11.667 11.667s-11.667-5.223-11.667-11.667v0zM11.667 58.333c0-6.443 5.223-11.667 11.667-11.667v0h11.667v11.667c0 6.443-5.223 11.667-11.667 11.667s-11.667-5.223-11.667-11.667v0zM35 0v23.333h11.667c6.443 0 11.667-5.223 11.667-11.667s-5.223-11.667-11.667-11.667v0zM11.667 11.667c0 6.443 5.223 11.667 11.667 11.667v0h11.667v-23.333h-11.667c-6.443 0-11.667 5.223-11.667 11.667v0zM11.667 35c0 6.443 5.223 11.667 11.667 11.667v0h11.667v-23.333h-11.667c-6.443 0-11.667 5.223-11.667 11.667v0z"></path>
</svg>
