<!-- Generated by IcoMoon.io -->
<svg version="1.1" xmlns="http://www.w3.org/2000/svg" width="70" height="70" viewBox="0 0 70 70">
<title>git</title>
<path fill="#f05032" d="M68.676 31.879l-30.564-30.561c-1.762-1.759-4.614-1.759-6.382 0l-6.332 6.344 8.050 8.050c1.881-0.627 4.022-0.204 5.51 1.286 1.505 1.502 1.919 3.669 1.278 5.542l7.752 7.758c1.881-0.65 4.045-0.227 5.542 1.269 2.103 2.1 2.103 5.495 0 7.595-2.097 2.097-5.486 2.097-7.583 0-1.572-1.578-1.966-3.9-1.178-5.822l-7.26-7.222v19.031c0.513 0.251 0.998 0.592 1.423 1.015 2.080 2.103 2.080 5.492 0 7.583-2.097 2.103-5.51 2.103-7.61 0-2.097-2.097-2.097-5.48 0-7.577 0.531-0.525 1.129-0.922 1.765-1.184v-19.218c-0.633-0.265-1.237-0.648-1.75-1.17-1.59-1.59-1.972-3.914-1.155-5.86l-7.91-7.948-20.959 20.945c-1.75 1.765-1.75 4.62 0 6.385l30.567 30.558c1.762 1.762 4.614 1.762 6.376 0l30.421-30.421c1.765-1.759 1.765-4.614 0-6.379z"></path>
</svg>
