<!-- Generated by IcoMoon.io -->
<svg version="1.1" xmlns="http://www.w3.org/2000/svg" width="70" height="70" viewBox="0 0 70 70">
<title>github</title>
<path d="M35.001 0.864c-19.328 0-35.001 15.669-35.001 35 0 15.464 10.029 28.583 23.935 33.211 1.749 0.324 2.392-0.759 2.392-1.684 0-0.834-0.033-3.592-0.048-6.516-9.738 2.117-11.792-4.13-11.792-4.13-1.592-4.045-3.886-5.121-3.886-5.121-3.175-2.172 0.24-2.128 0.24-2.128 3.514 0.247 5.365 3.607 5.365 3.607 3.122 5.35 8.188 3.804 10.186 2.909 0.314-2.262 1.22-3.806 2.222-4.68-7.775-0.885-15.947-3.886-15.947-17.297 0-3.821 1.367-6.944 3.607-9.394-0.363-0.882-1.562-4.441 0.339-9.263 0 0 2.94-0.94 9.628 3.588 2.792-0.776 5.786-1.165 8.761-1.178 2.974 0.014 5.97 0.402 8.767 1.178 6.681-4.528 9.615-3.588 9.615-3.588 1.905 4.821 0.708 8.381 0.344 9.263 2.244 2.451 3.602 5.573 3.602 9.394 0 13.443-8.188 16.403-15.982 17.269 1.255 1.086 2.374 3.216 2.374 6.481 0 4.683-0.041 8.452-0.041 9.605 0 0.932 0.63 2.023 2.404 1.679 13.899-4.633 23.915-17.748 23.915-33.207 0-19.331-15.67-35-34.999-35z"></path>
</svg>
