<!-- Generated by IcoMoon.io -->
<svg version="1.1" xmlns="http://www.w3.org/2000/svg" width="70" height="70" viewBox="0 0 70 70">
<title>jquery</title>
<path fill="#0769ad" d="M4.474 17.133c-6.192 8.896-5.425 20.466-0.691 29.913 0.108 0.23 0.228 0.449 0.344 0.668 0.067 0.152 0.143 0.292 0.225 0.435 0.038 0.082 0.090 0.166 0.137 0.242 0.076 0.152 0.157 0.297 0.236 0.443l0.458 0.773c0.085 0.143 0.166 0.283 0.263 0.426 0.16 0.274 0.35 0.545 0.516 0.82 0.076 0.114 0.146 0.227 0.23 0.341 0.324 0.508 0.622 0.93 0.936 1.339l-0.032-0.044c0.228 0.312 0.455 0.615 0.7 0.919 0.079 0.111 0.166 0.222 0.248 0.333l0.645 0.785c0.079 0.090 0.157 0.195 0.242 0.289 0.286 0.344 0.589 0.68 0.893 1.018 0 0.006 0.009 0.012 0.015 0.020 0.377 0.474 0.782 0.894 1.224 1.273l0.012 0.010c0.233 0.239 0.467 0.478 0.715 0.712l0.295 0.283c0.324 0.303 0.648 0.607 0.989 0.898 0.006 0 0.009 0.006 0.015 0.009l0.166 0.146c0.297 0.26 0.598 0.519 0.904 0.758l0.365 0.306c0.248 0.198 0.505 0.388 0.758 0.583l0.397 0.303c0.271 0.204 0.56 0.405 0.837 0.604 0.102 0.073 0.204 0.146 0.309 0.213l0.085 0.067 0.82 0.54 0.35 0.233c0.429 0.274 0.855 0.534 1.277 0.79 0.122 0.061 0.245 0.128 0.359 0.198 0.315 0.181 0.642 0.365 0.96 0.534 0.175 0.099 0.356 0.184 0.537 0.274 0.219 0.123 0.446 0.242 0.68 0.365 0.063 0.019 0.117 0.042 0.168 0.070l-0.005-0.002c0.096 0.044 0.187 0.090 0.28 0.137 0.35 0.175 0.715 0.341 1.094 0.508 0.070 0.029 0.146 0.058 0.222 0.099 0.42 0.184 0.84 0.359 1.275 0.531 0.099 0.029 0.204 0.079 0.306 0.117 0.394 0.149 0.799 0.3 1.199 0.443l0.146 0.052c0.446 0.152 0.887 0.297 1.339 0.438 0.105 0.029 0.213 0.067 0.324 0.096 0.464 0.14 0.913 0.306 1.38 0.397 29.925 5.454 38.623-17.993 38.623-17.993-7.306 9.514-20.271 12.023-32.55 9.231-0.455-0.105-0.91-0.251-1.368-0.385-0.835-0.241-1.385-0.421-1.93-0.613l0.276 0.085-0.181-0.070c-0.397-0.134-0.779-0.283-1.167-0.432-0.073-0.033-0.18-0.073-0.288-0.11l-0.033-0.010c-0.429-0.172-0.846-0.35-1.26-0.534-0.090-0.029-0.166-0.070-0.257-0.105-0.765-0.339-1.111-0.505-1.455-0.674l0.402 0.178c-0.108-0.047-0.204-0.096-0.309-0.152-0.274-0.128-0.548-0.274-0.817-0.414-0.249-0.119-0.428-0.212-0.604-0.31l0.059 0.030c-0.33-0.175-0.659-0.365-0.989-0.545-0.099-0.070-0.213-0.128-0.327-0.193-0.631-0.37-1.048-0.629-1.461-0.895l0.183 0.11c-0.14-0.087-0.252-0.163-0.362-0.243l0.018 0.012c-0.377-0.232-0.673-0.43-0.964-0.637l0.054 0.036c-0.102-0.067-0.195-0.14-0.3-0.213-0.373-0.258-0.652-0.461-0.927-0.669l0.070 0.051c-0.122-0.099-0.254-0.193-0.385-0.292-0.257-0.201-0.516-0.394-0.773-0.607l-0.344-0.274c-0.38-0.307-0.697-0.575-1.008-0.849l0.034 0.029c-0.032-0.032-0.068-0.060-0.105-0.086l-0.003-0.002-1.012-0.922-0.292-0.274c-0.239-0.242-0.484-0.475-0.729-0.715l-0.283-0.292c-0.302-0.301-0.596-0.608-0.883-0.921l-0.019-0.021-0.044-0.047c-0.309-0.338-0.61-0.683-0.913-1.033-0.079-0.090-0.152-0.187-0.233-0.283l-0.659-0.808c-0.229-0.287-0.555-0.712-0.874-1.142l-0.117-0.165c-6.81-9.298-9.275-22.132-3.824-32.658zM23.686 9.64c-4.489 6.443-4.235 15.059-0.741 21.872 0.647 1.277 1.303 2.358 2.030 3.384l-0.056-0.083c0.671 0.963 1.412 2.1 2.31 2.876 0.312 0.356 0.65 0.7 1.003 1.047l0.262 0.263c0.332 0.321 0.674 0.636 1.021 0.948l0.044 0.038c0.351 0.308 0.744 0.635 1.146 0.951l0.062 0.047c0.099 0.067 0.184 0.146 0.28 0.213 0.408 0.315 0.82 0.618 1.245 0.919l0.044 0.026c0.181 0.131 0.373 0.251 0.578 0.379 0.082 0.053 0.175 0.123 0.262 0.175 0.309 0.198 0.613 0.385 0.925 0.575 0.050 0.020 0.093 0.047 0.14 0.067 0.263 0.16 0.548 0.315 0.822 0.458 0.096 0.058 0.19 0.102 0.289 0.157 0.195 0.096 0.388 0.198 0.575 0.297l0.093 0.041c0.394 0.193 0.796 0.373 1.19 0.554 0.099 0.038 0.184 0.070 0.268 0.111 0.324 0.14 0.653 0.274 0.977 0.4 0.146 0.050 0.283 0.108 0.42 0.152 0.297 0.111 0.61 0.213 0.904 0.315l0.408 0.131c0.426 0.131 0.858 0.303 1.307 0.376 23.1 3.83 28.449-13.962 28.449-13.962-4.815 6.93-14.134 10.232-24.065 7.653-0.605-0.154-1.041-0.284-1.472-0.426l0.165 0.047c-0.14-0.038-0.263-0.082-0.397-0.123-0.303-0.105-0.615-0.207-0.91-0.318l-0.42-0.157c-0.327-0.131-0.659-0.254-0.977-0.394-0.099-0.044-0.19-0.073-0.265-0.117-0.408-0.184-0.82-0.365-1.216-0.56l-0.601-0.312-0.347-0.175c-0.268-0.14-0.516-0.286-0.773-0.438-0.072-0.034-0.131-0.067-0.188-0.104l0.007 0.004c-0.309-0.193-0.63-0.379-0.925-0.578-0.099-0.055-0.19-0.123-0.283-0.181l-0.607-0.397c-0.42-0.292-0.831-0.607-1.245-0.91-0.093-0.085-0.184-0.155-0.274-0.23-4.366-3.433-7.811-8.126-9.444-13.44-1.721-5.524-1.342-11.719 1.63-16.748zM39.842 4.037c-2.648 3.885-2.902 8.709-1.079 12.994 1.937 4.55 5.898 8.123 10.512 9.815 0.19 0.073 0.373 0.134 0.569 0.204l0.257 0.079c0.268 0.085 0.54 0.184 0.817 0.245 12.763 2.462 16.217-6.554 17.147-7.878-3.039 4.363-8.135 5.41-14.385 3.891-0.611-0.153-1.113-0.313-1.602-0.499l0.097 0.032c-0.738-0.26-1.332-0.51-1.91-0.789l0.11 0.048c-1.203-0.589-2.236-1.229-3.197-1.959l0.047 0.034c-5.6-4.241-9.068-12.337-5.416-18.932z"></path>
</svg>
