<!-- Generated by IcoMoon.io -->
<svg version="1.1" xmlns="http://www.w3.org/2000/svg" width="70" height="70" viewBox="0 0 70 70">
<title>redux</title>
<path fill="#764abc" d="M48.513 48.137c2.535-0.219 4.5-2.45 4.372-5.116-0.134-2.666-2.319-4.807-4.982-4.807h-0.178c-2.75 0.090-4.894 2.403-4.807 5.16 0.087 1.397 0.659 2.535 1.441 3.363-3.057 5.944-7.645 10.313-14.595 13.985-4.675 2.444-9.613 3.366-14.42 2.71-4.019-0.566-7.163-2.362-9.088-5.244-2.882-4.372-3.144-9.088-0.744-13.807 1.753-3.41 4.372-5.9 6.122-7.125-0.438-1.135-0.963-3.057-1.225-4.498-12.938 9.266-11.623 21.936-7.691 27.924 2.928 4.369 8.916 7.163 15.47 7.163 1.747 0 3.585-0.128 5.375-0.566 11.363-2.185 19.97-9.001 24.908-19.052zM64.111 37.211c-6.77-7.954-16.736-12.323-28.099-12.323h-1.487c-0.738-1.616-2.441-2.622-4.366-2.622h-0.131c-2.75 0-4.894 2.363-4.804 5.113 0.087 2.619 2.316 4.807 4.982 4.807h0.216c1.969-0.087 3.672-1.313 4.369-3.060h1.619c6.735 0 13.11 1.966 18.923 5.81 4.454 2.928 7.647 6.773 9.438 11.363 1.569 3.757 1.485 7.429-0.131 10.491-2.491 4.804-6.688 7.341-12.235 7.341-3.497 0-6.904-1.094-8.654-1.878-1.047 0.869-2.797 2.313-4.066 3.188 3.844 1.744 7.735 2.75 11.492 2.75 8.523 0 14.855-4.804 17.261-9.438 2.619-5.244 2.403-14.070-4.285-21.63zM18.929 49.706c0.085 2.622 2.313 4.807 4.982 4.807h0.175c2.797-0.087 4.938-2.4 4.807-5.157 0-2.622-2.272-4.804-4.938-4.804h-0.178c-0.175 0-0.435 0-0.656 0.085-3.625-6.119-5.157-12.676-4.585-19.749 0.347-5.332 2.097-9.966 5.241-13.81 2.622-3.278 7.56-4.897 10.926-4.982 9.438-0.178 13.373 11.582 13.676 16.258l4.369 1.31c-1.006-14.332-9.917-21.852-18.439-21.852-7.997 0-15.38 5.813-18.355 14.335-4.063 11.363-1.397 22.286 3.585 31.027-0.435 0.569-0.697 1.572-0.61 2.532z"></path>
</svg>
