<!-- Generated by IcoMoon.io -->
<svg version="1.1" xmlns="http://www.w3.org/2000/svg" width="70" height="70" viewBox="0 0 70 70">
<title>bootstrap</title>
<path fill="#563d7c" d="M58.333 0h-46.667c-6.437 0.018-11.649 5.23-11.667 11.667v46.667c0 6.417 5.25 11.667 11.667 11.667h46.667c6.417 0 11.667-5.25 11.667-11.667v-46.667c0-6.417-5.25-11.667-11.667-11.667zM51.955 49.16c-0.583 1.406-1.508 2.645-2.692 3.599-1.225 0.992-2.777 1.808-4.687 2.392-1.907 0.592-4.177 0.89-6.805 0.89h-18.76v-40.833h19.839c3.669 0 6.609 0.825 8.808 2.508 2.217 1.692 3.319 4.212 3.319 7.613 0 2.056-0.502 3.821-1.511 5.279-1.003 1.45-2.45 2.584-4.317 3.372v0.134c2.491 0.525 4.419 1.706 5.688 3.544s1.919 4.159 1.919 6.962c0 1.569-0.303 3.062-0.875 4.457zM43.858 39.098c-1.196-1.094-2.876-1.627-5.046-1.627h-12.606v12.74h12.641c2.158 0 3.85-0.56 5.046-1.692 1.196-1.123 1.808-2.724 1.808-4.783-0.020-2.013-0.613-3.57-1.808-4.638zM42.108 30.864c1.155-0.98 1.721-2.383 1.721-4.212 0-2.053-0.51-3.512-1.546-4.346-1.027-0.831-2.508-1.263-4.457-1.263h-11.667v11.267h11.667c1.7 0 3.15-0.496 4.282-1.447z"></path>
</svg>
