<!-- Generated by IcoMoon.io -->
<svg version="1.1" xmlns="http://www.w3.org/2000/svg" width="70" height="70" viewBox="0 0 70 70">
<title>gulp</title>
<path fill="#da4648" d="M44.205 56.677l1.855-3.162c0 0-4.212 1.724-11.258 1.724-7.052 0-11.2-1.657-11.2-1.657l2.074 3.45 0.735 10.876c0 1.175 3.833 2.094 8.563 2.094 4.734 0 8.569-0.916 8.569-2.094l0.668-11.185zM45.999 36.126c-2.243 0.134-3.363 2.634-4.489 5.265-0.417 0.963-1.837 5.066-2.765 4.559-0.927-0.505 1.205-3.876 1.805-5.883-0.691 0.508-3.223 2.476-3.876 0.627-1.044 0.916-3.293 1.4-3.039-0.96-0.557 1.006-1.811 2.4-3.322 1.791-1.963-0.744 1.152-7.032 1.925-6.729 0.776 0.353-0.155 1.75-0.397 2.316-0.543 1.222-1.161 2.794-0.744 3.1 0.7 0.566 2.637-2.050 2.68-2.097 0.362-0.481 1.397-3.585 2.225-3.229 0.831 0.391-2.074 4.495-0.992 5.326 0.222 0.175 1.117-0.087 1.66-0.697 0.35-0.35 0.227-1.225 1.397-4.019 1.178-2.797 2.228-6.288 3.030-6.026s0.143 2.050-0.149 2.75c-1.353 3.144-3.698 8.295-2.596 7.904 1.091-0.394 1.66-0.394 2.75-1.66s1.006-3.36 1.747-3.316c0.7 0.041 0.613 0.741 0.438 1.219 0.7-0.788 3.36-2.532 3.975-0.828 0.741 2.007-3.803 4.935-2.666 4.76 1.094-0.131 2.882-1.266 3.669-2.313l2.097-18.958c0 0-2.141 1.75-15.636 1.75s-15.412-1.703-15.412-1.703l1.788 17.296c0.963-2.707 3.232-8.207 6.773-7.992 1.616 0.087 3.8 3.235 1.919 3.322-0.787 0.044-0.875-1.572-1.791-1.791-0.697-0.134-1.616 0.394-2.225 1.006-1.178 1.178-3.803 5.851-3.453 8.17 0.438 2.969 4.104-1.009 4.716-2.188 0.435-0.825 0.741-3.319 1.657-3.057 0.962 0.262-0.085 2.841-0.787 5.066-0.787 2.535-1.178 5.195-2.135 4.888-0.962-0.303 0.61-3.579 0.519-4.148-0.913 0.872-2.575 2.975-4.757 1.922l1.091 10.789c0 0 2.972 2.313 11.88 2.313s12.011-2.313 12.011-2.313l1.397-12.492c-1.135 1.137-4.716 3.1-4.935 0.875-0.172-1.791 3.888-4.369 2.841-4.416zM50.593 1.951l-7.755 8.167-1.418 5.545c5.486 0.35 9.301 1.126 9.301 2.024 0 1.222-7.041 2.208-15.724 2.208s-15.721-1-15.721-2.225c0-1.222 7.041-2.228 15.724-2.228 1.234 0 2.462 0 3.687 0.047l1.636-6.638 8.24-8.735c0.198-0.262 0.817-0.044 1.383 0.438 0.566 0.435 0.872 1.003 0.697 1.266v0.087zM39.41 18.853c0 0-1.525 0-1.779-0.233-0.064-0.073-0.105-0.169-0.105-0.262 0-0.169 0.114-0.265 0.262-0.321l0.128 0.219c-0.061 0.017-0.085 0.044-0.096 0.067 0 0.12 0.916 0.201 1.619 0.192 0.697-0.009 1.549-0.067 1.555-0.187 0-0.035-0.067-0.067-0.178-0.096l0.131-0.21c0.184 0.058 0.341 0.169 0.341 0.353 0 0.321-0.411 0.373-0.671 0.411-0.312 0.044-1.202 0.067-1.202 0.067z"></path>
</svg>
