<!-- Generated by IcoMoon.io -->
<svg version="1.1" xmlns="http://www.w3.org/2000/svg" width="70" height="70" viewBox="0 0 70 70">
<title>javascript</title>
<path fill="#f7df1e" d="M0 0h70v70h-70zM64.266 53.305c-0.51-3.194-2.59-5.877-8.759-8.38-2.147-1.006-4.532-1.706-5.241-3.325-0.265-0.963-0.306-1.488-0.134-2.056 0.437-1.884 2.669-2.45 4.419-1.925 1.138 0.35 2.188 1.225 2.847 2.625 3.016-1.972 3.016-1.972 5.119-3.281-0.787-1.225-1.178-1.753-1.709-2.275-1.837-2.056-4.285-3.106-8.266-3.016l-2.056 0.26c-1.972 0.481-3.85 1.531-4.988 2.931-3.325 3.765-2.365 10.328 1.66 13.040 3.981 2.975 9.803 3.628 10.547 6.431 0.7 3.413-2.538 4.506-5.734 4.112-2.365-0.525-3.675-1.709-5.119-3.897l-5.337 3.065c0.613 1.4 1.313 2.010 2.362 3.235 5.075 5.122 17.762 4.859 20.040-2.928 0.085-0.262 0.7-2.056 0.216-4.812zM38.065 32.174h-6.557c0 5.653-0.026 11.27-0.026 16.931 0 3.593 0.184 6.892-0.402 7.907-0.963 2.010-3.442 1.753-4.568 1.4-1.155-0.572-1.741-1.359-2.421-2.494-0.184-0.306-0.321-0.572-0.37-0.572l-5.323 3.281c0.89 1.837 2.188 3.418 3.862 4.425 2.494 1.487 5.845 1.969 9.354 1.181 2.284-0.659 4.253-2.015 5.282-4.115 1.487-2.712 1.172-6.038 1.158-9.759 0.035-5.991 0-11.985 0-18.022z"></path>
</svg>
