<!-- Generated by IcoMoon.io -->
<svg version="1.1" xmlns="http://www.w3.org/2000/svg" width="70" height="70" viewBox="0 0 70 70">
<title>linkedin</title>
<path fill="#0077b5" d="M59.637 59.652h-10.366v-16.243c0-3.873-0.079-8.858-5.402-8.858-5.405 0-6.23 4.215-6.23 8.572v16.529h-10.366v-33.402h9.958v4.553h0.134c1.391-2.625 4.775-5.396 9.829-5.396 10.503 0 12.445 6.913 12.445 15.91zM15.566 21.68c-3.337 0-6.017-2.701-6.017-6.023 0-3.319 2.683-6.017 6.017-6.017 3.325 0 6.020 2.698 6.020 6.017 0 3.322-2.698 6.023-6.020 6.023zM20.764 59.652h-10.395v-33.402h10.395zM64.823 0h-59.657c-2.855 0-5.165 2.258-5.165 5.043v59.914c0 2.788 2.31 5.043 5.165 5.043h59.649c2.852 0 5.186-2.255 5.186-5.043v-59.914c0-2.785-2.333-5.043-5.186-5.043z"></path>
</svg>
