<!-- Generated by IcoMoon.io -->
<svg version="1.1" xmlns="http://www.w3.org/2000/svg" width="70" height="70" viewBox="0 0 70 70">
<title>react</title>
<path fill="#61dafb" d="M35 28.761c-3.446 0-6.239 2.793-6.239 6.239s2.793 6.239 6.239 6.239v0c3.446 0 6.239-2.793 6.239-6.239s-2.793-6.239-6.239-6.239v0zM17.523 47.41l-1.377-0.35c-10.261-2.593-16.147-6.994-16.147-12.072s5.886-9.479 16.147-12.072l1.377-0.347 0.388 1.365c1.191 4.070 2.543 7.531 4.154 10.843l-0.179-0.407 0.295 0.621-0.295 0.621c-1.436 2.908-2.788 6.37-3.853 9.955l-0.123 0.481zM15.508 26.104c-7.799 2.19-12.585 5.542-12.585 8.884 0 3.34 4.786 6.691 12.585 8.884 1.119-3.543 2.288-6.485 3.636-9.326l-0.188 0.442c-1.162-2.402-2.331-5.344-3.305-8.373l-0.142-0.511zM52.477 47.41l-0.388-1.368c-1.189-4.066-2.542-7.526-4.156-10.837l0.178 0.404-0.295-0.621 0.295-0.621c1.435-2.907 2.788-6.368 3.855-9.952l0.123-0.483 0.388-1.365 1.38 0.347c10.258 2.593 16.144 6.994 16.144 12.075s-5.886 9.479-16.144 12.072zM51.045 34.988c1.4 3.030 2.558 6.008 3.447 8.884 7.802-2.193 12.585-5.545 12.585-8.884 0-3.343-4.786-6.691-12.585-8.884-1.117 3.541-2.286 6.482-3.635 9.322l0.187-0.438zM15.488 26.090l-0.388-1.362c-2.885-10.167-2.010-17.453 2.4-19.997 4.325-2.497 11.27 0.452 18.547 7.922l0.992 1.018-0.992 1.018c-2.507 2.603-4.828 5.429-6.916 8.429l-0.148 0.225-0.394 0.563-0.685 0.058c-4.101 0.33-7.866 0.96-11.516 1.881l0.476-0.102zM21.018 6.752c-0.782 0-1.473 0.169-2.056 0.505-2.899 1.671-3.413 7.481-1.415 15.321 2.648-0.623 5.864-1.14 9.143-1.44l0.286-0.021c1.956-2.765 3.92-5.185 6.030-7.469l-0.045 0.049c-4.55-4.43-8.858-6.945-11.944-6.945zM48.985 66.141c-0.003 0-0.003 0 0 0-4.156 0-9.494-3.13-15.032-8.817l-0.992-1.018 0.992-1.018c2.506-2.604 4.826-5.43 6.913-8.431l0.148-0.225 0.394-0.563 0.683-0.058c4.102-0.328 7.869-0.957 11.521-1.878l-0.476 0.102 1.377-0.347 0.391 1.365c2.879 10.162 2.007 17.45-2.403 19.991-0.983 0.565-2.161 0.899-3.417 0.899-0.034 0-0.069-0-0.103-0.001l0.005 0zM37.039 56.28c4.55 4.43 8.858 6.945 11.944 6.945h0.003c0.779 0 1.473-0.169 2.053-0.505 2.899-1.671 3.415-7.484 1.415-15.324-2.65 0.625-5.868 1.141-9.148 1.44l-0.284 0.021c-1.953 2.767-3.917 5.188-6.026 7.471l0.044-0.049zM54.513 26.090l-1.377-0.347c-3.178-0.822-6.946-1.453-10.803-1.763l-0.242-0.016-0.683-0.058-0.394-0.563c-2.233-3.225-4.553-6.051-7.082-8.675l0.020 0.021-0.992-1.018 0.992-1.018c7.274-7.467 14.216-10.415 18.547-7.922 4.41 2.543 5.285 9.829 2.403 19.994zM43.021 21.117c3.331 0.303 6.495 0.796 9.433 1.461 2.001-7.84 1.485-13.65-1.415-15.321-2.882-1.665-8.298 0.887-14 6.44 2.064 2.235 4.027 4.655 5.831 7.196l0.151 0.224zM21.018 66.141c-0.030 0-0.065 0.001-0.101 0.001-1.256 0-2.434-0.334-3.451-0.917l0.034 0.018c-4.41-2.54-5.285-9.826-2.4-19.991l0.385-1.365 1.377 0.347c3.369 0.849 7.085 1.447 11.040 1.776l0.685 0.058 0.391 0.563c2.237 3.226 4.558 6.052 7.085 8.679l-0.021-0.022 0.992 1.018-0.992 1.018c-5.536 5.688-10.873 8.817-15.024 8.817zM17.547 47.396c-2.001 7.84-1.485 13.653 1.415 15.324 2.879 1.642 8.292-0.89 14-6.44-2.063-2.236-4.028-4.656-5.833-7.198l-0.152-0.225c-3.563-0.32-6.78-0.836-9.919-1.556l0.49 0.094zM35 49.228c-2.4 0-4.868-0.105-7.338-0.309l-0.685-0.058-0.394-0.563c-1.191-1.679-2.492-3.699-3.712-5.773l-0.226-0.416c-0.99-1.658-2.124-3.788-3.171-5.967l-0.23-0.531-0.292-0.621 0.292-0.621c1.277-2.71 2.41-4.84 3.627-6.915l-0.226 0.417c1.207-2.088 2.535-4.171 3.938-6.189l0.394-0.563 0.685-0.058c2.199-0.198 4.756-0.311 7.34-0.311s5.141 0.113 7.668 0.334l-0.328-0.023 0.683 0.058 0.391 0.563c2.574 3.644 5.019 7.803 7.114 12.162l0.227 0.525 0.295 0.621-0.295 0.621c-2.314 4.881-4.76 9.041-7.523 12.96l0.182-0.272-0.391 0.563-0.683 0.058c-2.47 0.204-4.941 0.309-7.341 0.309zM28.592 46.066c4.317 0.324 8.499 0.324 12.819 0 2.196-3.162 4.327-6.791 6.184-10.579l0.221-0.499c-2.071-4.283-4.204-7.912-6.589-11.354l0.181 0.276c-1.918-0.155-4.153-0.243-6.408-0.243s-4.49 0.088-6.7 0.261l0.292-0.018c-2.206 3.166-4.339 6.795-6.191 10.586l-0.217 0.491c2.080 4.288 4.213 7.916 6.593 11.361l-0.185-0.283z"></path>
</svg>
