<!-- Generated by IcoMoon.io -->
<svg version="1.1" xmlns="http://www.w3.org/2000/svg" width="70" height="70" viewBox="0 0 70 70">
<title>sass</title>
<path fill="#c69" d="M35 0c19.329 0 35 15.671 35 35s-15.671 35-35 35-35-15.671-35-35 15.671-35 35-35zM28.044 46.661c0.51 1.881 0.455 3.64-0.070 5.227l-0.19 0.525c-0.070 0.178-0.152 0.35-0.227 0.513-0.408 0.846-0.951 1.633-1.619 2.363-2.036 2.214-4.877 3.054-6.096 2.348-1.313-0.764-0.659-3.894 1.703-6.388 2.54-2.678 6.183-4.401 6.183-4.401v-0.009zM56.951 14.983c-1.581-6.221-11.891-8.266-21.648-4.798-5.801 2.062-12.087 5.303-16.605 9.529-5.375 5.020-6.23 9.395-5.877 11.223 1.245 6.449 10.083 10.666 13.717 13.796v0.017c-1.070 0.525-8.913 4.46-10.751 8.531-1.969 4.288 0.306 7.353 1.794 7.744 4.594 1.272 9.319-1.050 11.856-4.81 2.45-3.678 2.234-8.403 1.178-10.722 1.447-0.394 3.15-0.569 5.337-0.303 6.128 0.7 7.353 4.55 7.088 6.125-0.263 1.572-1.525 2.491-1.966 2.753-0.438 0.265-0.569 0.35-0.528 0.528 0.044 0.263 0.265 0.263 0.612 0.219 0.481-0.087 3.197-1.313 3.328-4.29 0.131-3.762-3.459-7.96-9.844-7.875-2.625 0.047-4.29 0.265-5.469 0.747-0.087-0.131-0.178-0.219-0.306-0.306-3.938-4.244-11.244-7.219-10.938-12.862 0.087-2.056 0.831-7.478 14-14.041 10.806-5.384 19.428-3.894 20.915-0.612 2.138 4.678-4.597 13.388-15.84 14.653-4.288 0.481-6.519-1.178-7.090-1.794-0.61-0.656-0.697-0.7-0.916-0.566-0.35 0.175-0.131 0.744 0 1.094 0.35 0.875 1.706 2.406 4.072 3.194 2.053 0.656 7.088 1.047 13.125-1.313 6.778-2.622 12.072-9.931 10.541-16.056z"></path>
</svg>
